{
	"asset":{
		"generator":"Khronos glTF Blender I/O v4.1.63",
		"version":"2.0"
	},
	"extensionsUsed":[
		"KHR_materials_specular",
		"KHR_materials_ior"
	],
	"scene":0,
	"scenes":[
		{
			"name":"Scene",
			"nodes":[
				14,
				15
			]
		}
	],
	"nodes":[
		{
			"mesh":0,
			"name":"Circle_Material_001_0"
		},
		{
			"children":[
				0
			],
			"name":"Circle",
			"rotation":[
				-0.70710688829422,
				0,
				0,
				0.7071066498756409
			],
			"scale":[
				100,
				99.99999237060547,
				99.99999237060547
			]
		},
		{
			"mesh":1,
			"name":"Circle_001_Material_002_0"
		},
		{
			"children":[
				2
			],
			"name":"Circle.001",
			"rotation":[
				-0.70710688829422,
				0,
				0,
				0.7071066498756409
			],
			"scale":[
				13.86242389678955,
				13.862421989440918,
				13.862421989440918
			],
			"translation":[
				0,
				170.634521484375,
				0
			]
		},
		{
			"mesh":2,
			"name":"Circle_002_Material_002_0"
		},
		{
			"children":[
				4
			],
			"name":"Circle.002",
			"rotation":[
				-0.7071068286895752,
				0,
				0,
				0.7071068286895752
			],
			"scale":[
				13.986906051635742,
				13.986905097961426,
				13.986905097961426
			],
			"translation":[
				0,
				170.69088745117188,
				0
			]
		},
		{
			"mesh":3,
			"name":"Circle.003_Material.001_0"
		},
		{
			"children":[
				6
			],
			"name":"Circle.003",
			"rotation":[
				-0.70710688829422,
				0,
				0,
				0.7071066498756409
			],
			"scale":[
				100,
				99.99999237060547,
				99.99999237060547
			]
		},
		{
			"mesh":4,
			"name":"Circle.004_Material.002_0"
		},
		{
			"children":[
				8
			],
			"name":"Circle.004",
			"rotation":[
				-0.70710688829422,
				0,
				0,
				0.7071066498756409
			],
			"scale":[
				13.86242389678955,
				13.862421989440918,
				13.862421989440918
			],
			"translation":[
				0,
				170.634521484375,
				0
			]
		},
		{
			"mesh":5,
			"name":"Circle.005_Material.002_0"
		},
		{
			"children":[
				10
			],
			"name":"Circle.005",
			"rotation":[
				-0.7071068286895752,
				0,
				0,
				0.7071068286895752
			],
			"scale":[
				13.986906051635742,
				13.986905097961426,
				13.986905097961426
			],
			"translation":[
				0,
				170.69088745117188,
				0
			]
		},
		{
			"children":[
				1,
				3,
				5,
				7,
				9,
				11
			],
			"name":"RootNode"
		},
		{
			"children":[
				12
			],
			"name":"9d8777db55314d08889c2fff0639a772.fbx",
			"rotation":[
				0.70710688829422,
				0,
				0,
				0.7071066498756409
			],
			"scale":[
				0.009999999776482582,
				0.010000000707805157,
				0.010000000707805157
			]
		},
		{
			"children":[
				13
			],
			"name":"Sketchfab_model",
			"rotation":[
				-0.70710688829422,
				0,
				0,
				0.7071066498756409
			]
		},
		{
			"mesh":6,
			"name":"Background",
			"scale":[
				16.741500854492188,
				8.90269660949707,
				8.90269660949707
			],
			"translation":[
				0,
				-2,
				0
			]
		}
	],
	"materials":[
		{
			"alphaMode":"BLEND",
			"doubleSided":true,
			"name":"Material_001",
			"pbrMetallicRoughness":{
				"baseColorFactor":[
					0.800000011920929,
					0.800000011920929,
					0.800000011920929,
					0.7843291759490967
				],
				"metallicFactor":0,
				"roughnessFactor":0.8040408492088318
			}
		},
		{
			"doubleSided":true,
			"name":"Material_002",
			"pbrMetallicRoughness":{
				"baseColorFactor":[
					0,
					0,
					0,
					1
				],
				"metallicFactor":0
			}
		},
		{
			"doubleSided":true,
			"extensions":{
				"KHR_materials_specular":{
					"specularFactor":0.4000000059604645
				},
				"KHR_materials_ior":{
					"ior":1.4500000476837158
				}
			},
			"name":"Floor",
			"pbrMetallicRoughness":{
				"baseColorFactor":[
					0.863157331943512,
					0.6653875112533569,
					0.5028864741325378,
					1
				],
				"metallicFactor":0,
				"roughnessFactor":0.8999999761581421
			}
		}
	],
	"meshes":[
		{
			"name":"Circle_Material.001_0",
			"primitives":[
				{
					"attributes":{
						"POSITION":0,
						"NORMAL":1,
						"TEXCOORD_0":2
					},
					"indices":3,
					"material":0
				}
			]
		},
		{
			"name":"Circle.001_Material.002_0",
			"primitives":[
				{
					"attributes":{
						"POSITION":4,
						"NORMAL":5,
						"TEXCOORD_0":6
					},
					"indices":7,
					"material":1
				}
			]
		},
		{
			"name":"Circle.002_Material.002_0",
			"primitives":[
				{
					"attributes":{
						"POSITION":8,
						"NORMAL":9,
						"TEXCOORD_0":10
					},
					"indices":11,
					"material":1
				}
			]
		},
		{
			"name":"Circle.003_Material.001_0",
			"primitives":[
				{
					"attributes":{
						"POSITION":12,
						"NORMAL":13,
						"TEXCOORD_0":14
					},
					"indices":3,
					"material":0
				}
			]
		},
		{
			"name":"Circle.004_Material.002_0",
			"primitives":[
				{
					"attributes":{
						"POSITION":15,
						"NORMAL":16,
						"TEXCOORD_0":17
					},
					"indices":7,
					"material":1
				}
			]
		},
		{
			"name":"Circle.005_Material.002_0",
			"primitives":[
				{
					"attributes":{
						"POSITION":18,
						"NORMAL":19,
						"TEXCOORD_0":20
					},
					"indices":11,
					"material":1
				}
			]
		},
		{
			"name":"Plane",
			"primitives":[
				{
					"attributes":{
						"POSITION":21,
						"NORMAL":22,
						"TEXCOORD_0":23
					},
					"indices":24,
					"material":2
				}
			]
		}
	],
	"accessors":[
		{
			"bufferView":0,
			"componentType":5126,
			"count":1152,
			"max":[
				0.47037020325660706,
				0.46975967288017273,
				1.8168398141860962
			],
			"min":[
				-0.46914926171302795,
				-0.46975967288017273,
				-0.526249885559082
			],
			"type":"VEC3"
		},
		{
			"bufferView":1,
			"componentType":5126,
			"count":1152,
			"type":"VEC3"
		},
		{
			"bufferView":2,
			"componentType":5126,
			"count":1152,
			"type":"VEC2"
		},
		{
			"bufferView":3,
			"componentType":5123,
			"count":6888,
			"type":"SCALAR"
		},
		{
			"bufferView":4,
			"componentType":5126,
			"count":320,
			"max":[
				1.007546067237854,
				1,
				1.4219775199890137
			],
			"min":[
				-1,
				-1.0152548551559448,
				0.29986894130706787
			],
			"type":"VEC3"
		},
		{
			"bufferView":5,
			"componentType":5126,
			"count":320,
			"type":"VEC3"
		},
		{
			"bufferView":6,
			"componentType":5126,
			"count":320,
			"type":"VEC2"
		},
		{
			"bufferView":7,
			"componentType":5123,
			"count":1140,
			"type":"SCALAR"
		},
		{
			"bufferView":8,
			"componentType":5126,
			"count":256,
			"max":[
				1,
				1,
				0.23427021503448486
			],
			"min":[
				-1,
				-1,
				0
			],
			"type":"VEC3"
		},
		{
			"bufferView":9,
			"componentType":5126,
			"count":256,
			"type":"VEC3"
		},
		{
			"bufferView":10,
			"componentType":5126,
			"count":256,
			"type":"VEC2"
		},
		{
			"bufferView":11,
			"componentType":5123,
			"count":768,
			"type":"SCALAR"
		},
		{
			"bufferView":12,
			"componentType":5126,
			"count":1152,
			"max":[
				0.47037020325660706,
				0.46975967288017273,
				1.8168398141860962
			],
			"min":[
				-0.46914926171302795,
				-0.46975967288017273,
				-0.526249885559082
			],
			"type":"VEC3"
		},
		{
			"bufferView":13,
			"componentType":5126,
			"count":1152,
			"type":"VEC3"
		},
		{
			"bufferView":14,
			"componentType":5126,
			"count":1152,
			"type":"VEC2"
		},
		{
			"bufferView":15,
			"componentType":5126,
			"count":320,
			"max":[
				1.007546067237854,
				1,
				1.4219775199890137
			],
			"min":[
				-1,
				-1.0152548551559448,
				0.29986894130706787
			],
			"type":"VEC3"
		},
		{
			"bufferView":16,
			"componentType":5126,
			"count":320,
			"type":"VEC3"
		},
		{
			"bufferView":17,
			"componentType":5126,
			"count":320,
			"type":"VEC2"
		},
		{
			"bufferView":18,
			"componentType":5126,
			"count":256,
			"max":[
				1,
				1,
				0.23427021503448486
			],
			"min":[
				-1,
				-1,
				0
			],
			"type":"VEC3"
		},
		{
			"bufferView":19,
			"componentType":5126,
			"count":256,
			"type":"VEC3"
		},
		{
			"bufferView":20,
			"componentType":5126,
			"count":256,
			"type":"VEC2"
		},
		{
			"bufferView":21,
			"componentType":5126,
			"count":24,
			"max":[
				1,
				1.5028787851333618,
				1
			],
			"min":[
				-1,
				0,
				-1
			],
			"type":"VEC3"
		},
		{
			"bufferView":22,
			"componentType":5126,
			"count":24,
			"type":"VEC3"
		},
		{
			"bufferView":23,
			"componentType":5126,
			"count":24,
			"type":"VEC2"
		},
		{
			"bufferView":24,
			"componentType":5123,
			"count":66,
			"type":"SCALAR"
		}
	],
	"bufferViews":[
		{
			"buffer":0,
			"byteLength":13824,
			"byteOffset":0,
			"target":34962
		},
		{
			"buffer":0,
			"byteLength":13824,
			"byteOffset":13824,
			"target":34962
		},
		{
			"buffer":0,
			"byteLength":9216,
			"byteOffset":27648,
			"target":34962
		},
		{
			"buffer":0,
			"byteLength":13776,
			"byteOffset":36864,
			"target":34963
		},
		{
			"buffer":0,
			"byteLength":3840,
			"byteOffset":50640,
			"target":34962
		},
		{
			"buffer":0,
			"byteLength":3840,
			"byteOffset":54480,
			"target":34962
		},
		{
			"buffer":0,
			"byteLength":2560,
			"byteOffset":58320,
			"target":34962
		},
		{
			"buffer":0,
			"byteLength":2280,
			"byteOffset":60880,
			"target":34963
		},
		{
			"buffer":0,
			"byteLength":3072,
			"byteOffset":63160,
			"target":34962
		},
		{
			"buffer":0,
			"byteLength":3072,
			"byteOffset":66232,
			"target":34962
		},
		{
			"buffer":0,
			"byteLength":2048,
			"byteOffset":69304,
			"target":34962
		},
		{
			"buffer":0,
			"byteLength":1536,
			"byteOffset":71352,
			"target":34963
		},
		{
			"buffer":0,
			"byteLength":13824,
			"byteOffset":72888,
			"target":34962
		},
		{
			"buffer":0,
			"byteLength":13824,
			"byteOffset":86712,
			"target":34962
		},
		{
			"buffer":0,
			"byteLength":9216,
			"byteOffset":100536,
			"target":34962
		},
		{
			"buffer":0,
			"byteLength":3840,
			"byteOffset":109752,
			"target":34962
		},
		{
			"buffer":0,
			"byteLength":3840,
			"byteOffset":113592,
			"target":34962
		},
		{
			"buffer":0,
			"byteLength":2560,
			"byteOffset":117432,
			"target":34962
		},
		{
			"buffer":0,
			"byteLength":3072,
			"byteOffset":119992,
			"target":34962
		},
		{
			"buffer":0,
			"byteLength":3072,
			"byteOffset":123064,
			"target":34962
		},
		{
			"buffer":0,
			"byteLength":2048,
			"byteOffset":126136,
			"target":34962
		},
		{
			"buffer":0,
			"byteLength":288,
			"byteOffset":128184,
			"target":34962
		},
		{
			"buffer":0,
			"byteLength":288,
			"byteOffset":128472,
			"target":34962
		},
		{
			"buffer":0,
			"byteLength":192,
			"byteOffset":128760,
			"target":34962
		},
		{
			"buffer":0,
			"byteLength":132,
			"byteOffset":128952,
			"target":34963
		}
	],
	"buffers":[
		{
			"byteLength":129084,
			"uri":"bottle1.bin"
		}
	]
}
