{
	"asset":{
		"generator":"Khronos glTF Blender I/O v4.1.63",
		"version":"2.0"
	},
	"extensionsUsed":[
		"KHR_materials_specular",
		"KHR_materials_ior",
		"KHR_materials_transmission"
	],
	"scene":0,
	"scenes":[
		{
			"name":"Scene",
			"nodes":[
				0,
				1,
				3,
				4,
				5
			]
		}
	],
	"nodes":[
		{
			"mesh":0,
			"name":"Background",
			"scale":[
				16.741500854492188,
				8.90269660949707,
				8.90269660949707
			]
		},
		{
			"name":"Light.Pov",
			"scale":[
				4.401737689971924,
				4.401737689971924,
				4.401737689971924
			],
			"translation":[
				3.6420092582702637,
				3.4809112548828125e-05,
				-0.09696722030639648
			]
		},
		{
			"mesh":1,
			"name":"Bottle_002"
		},
		{
			"children":[
				2
			],
			"mesh":2,
			"name":"Bottle_001",
			"translation":[
				3.65151309967041,
				0.03342996537685394,
				0.19244766235351562
			]
		},
		{
			"mesh":3,
			"name":"Circle.012",
			"translation":[
				3.65151309967041,
				0.03342996537685394,
				0.19244766235351562
			]
		},
		{
			"mesh":4,
			"name":"Buttr_Cream",
			"translation":[
				3.65151309967041,
				0.03342996537685394,
				0.19244766235351562
			]
		}
	],
	"materials":[
		{
			"doubleSided":true,
			"extensions":{
				"KHR_materials_specular":{
					"specularFactor":0.4000000059604645
				},
				"KHR_materials_ior":{
					"ior":1.4500000476837158
				}
			},
			"name":"Floor",
			"pbrMetallicRoughness":{
				"baseColorFactor":[
					0.863157331943512,
					0.6653875112533569,
					0.5028864741325378,
					1
				],
				"metallicFactor":0,
				"roughnessFactor":0.8999999761581421
			}
		},
		{
			"doubleSided":true,
			"name":"Material_001",
			"pbrMetallicRoughness":{
				"baseColorFactor":[
					0.800000011920929,
					0.800000011920929,
					0.800000011920929,
					1
				],
				"metallicFactor":0,
				"roughnessFactor":0.5
			}
		},
		{
			"doubleSided":true,
			"extensions":{
				"KHR_materials_transmission":{
					"transmissionFactor":1
				},
				"KHR_materials_ior":{
					"ior":1.100000023841858
				}
			},
			"name":"Glass",
			"pbrMetallicRoughness":{
				"metallicFactor":0,
				"roughnessFactor":0.800000011920929
			}
		},
		{
			"doubleSided":true,
			"name":"Material_002",
			"pbrMetallicRoughness":{
				"metallicFactor":0,
				"roughnessFactor":0.5
			}
		},
		{
			"doubleSided":true,
			"name":"Buttr_Cream",
			"pbrMetallicRoughness":{
				"metallicFactor":0,
				"roughnessFactor":0.5
			}
		}
	],
	"meshes":[
		{
			"name":"Plane",
			"primitives":[
				{
					"attributes":{
						"POSITION":0,
						"NORMAL":1,
						"TEXCOORD_0":2
					},
					"indices":3,
					"material":0
				}
			]
		},
		{
			"name":"Cylinder.004",
			"primitives":[
				{
					"attributes":{
						"POSITION":4,
						"NORMAL":5,
						"TEXCOORD_0":6
					},
					"indices":7,
					"material":1
				}
			]
		},
		{
			"name":"Circle",
			"primitives":[
				{
					"attributes":{
						"POSITION":8,
						"NORMAL":9,
						"TEXCOORD_0":10
					},
					"indices":11,
					"material":2
				}
			]
		},
		{
			"name":"Circle.012",
			"primitives":[
				{
					"attributes":{
						"POSITION":12,
						"NORMAL":13,
						"TEXCOORD_0":14
					},
					"indices":15,
					"material":3
				}
			]
		},
		{
			"name":"Circle.036",
			"primitives":[
				{
					"attributes":{
						"POSITION":16,
						"NORMAL":17,
						"TEXCOORD_0":18
					},
					"indices":19,
					"material":4
				}
			]
		}
	],
	"accessors":[
		{
			"bufferView":0,
			"componentType":5126,
			"count":24,
			"max":[
				1,
				1.5028787851333618,
				1
			],
			"min":[
				-1,
				0,
				-1
			],
			"type":"VEC3"
		},
		{
			"bufferView":1,
			"componentType":5126,
			"count":24,
			"type":"VEC3"
		},
		{
			"bufferView":2,
			"componentType":5126,
			"count":24,
			"type":"VEC2"
		},
		{
			"bufferView":3,
			"componentType":5123,
			"count":66,
			"type":"SCALAR"
		},
		{
			"bufferView":4,
			"componentType":5126,
			"count":13503,
			"max":[
				0.9860208034515381,
				1.8004529476165771,
				0.9878629446029663
			],
			"min":[
				-0.9864702224731445,
				1.492366909980774,
				-0.9846278429031372
			],
			"type":"VEC3"
		},
		{
			"bufferView":5,
			"componentType":5126,
			"count":13503,
			"type":"VEC3"
		},
		{
			"bufferView":6,
			"componentType":5126,
			"count":13503,
			"type":"VEC2"
		},
		{
			"bufferView":7,
			"componentType":5123,
			"count":25338,
			"type":"SCALAR"
		},
		{
			"bufferView":8,
			"componentType":5126,
			"count":640,
			"max":[
				1.0006709098815918,
				1.786559820175171,
				0.9995614290237427
			],
			"min":[
				-0.9993290901184082,
				0.008023064583539963,
				-1.0004385709762573
			],
			"type":"VEC3"
		},
		{
			"bufferView":9,
			"componentType":5126,
			"count":640,
			"type":"VEC3"
		},
		{
			"bufferView":10,
			"componentType":5126,
			"count":640,
			"type":"VEC2"
		},
		{
			"bufferView":11,
			"componentType":5123,
			"count":3828,
			"type":"SCALAR"
		},
		{
			"bufferView":12,
			"componentType":5126,
			"count":26,
			"max":[
				0.9245505332946777,
				1.3373764753341675,
				0.9995614290237427
			],
			"min":[
				-0.9232087135314941,
				0.15360036492347717,
				0.3822447955608368
			],
			"type":"VEC3"
		},
		{
			"bufferView":13,
			"componentType":5126,
			"count":26,
			"type":"VEC3"
		},
		{
			"bufferView":14,
			"componentType":5126,
			"count":26,
			"type":"VEC2"
		},
		{
			"bufferView":15,
			"componentType":5123,
			"count":72,
			"type":"SCALAR"
		},
		{
			"bufferView":16,
			"componentType":5126,
			"count":384,
			"max":[
				0.9054941534996033,
				1.3033403158187866,
				0.9043846726417542
			],
			"min":[
				-0.9041520953178406,
				0.09446227550506592,
				-0.905261754989624
			],
			"type":"VEC3"
		},
		{
			"bufferView":17,
			"componentType":5126,
			"count":384,
			"type":"VEC3"
		},
		{
			"bufferView":18,
			"componentType":5126,
			"count":384,
			"type":"VEC2"
		},
		{
			"bufferView":19,
			"componentType":5123,
			"count":2292,
			"type":"SCALAR"
		}
	],
	"bufferViews":[
		{
			"buffer":0,
			"byteLength":288,
			"byteOffset":0,
			"target":34962
		},
		{
			"buffer":0,
			"byteLength":288,
			"byteOffset":288,
			"target":34962
		},
		{
			"buffer":0,
			"byteLength":192,
			"byteOffset":576,
			"target":34962
		},
		{
			"buffer":0,
			"byteLength":132,
			"byteOffset":768,
			"target":34963
		},
		{
			"buffer":0,
			"byteLength":162036,
			"byteOffset":900,
			"target":34962
		},
		{
			"buffer":0,
			"byteLength":162036,
			"byteOffset":162936,
			"target":34962
		},
		{
			"buffer":0,
			"byteLength":108024,
			"byteOffset":324972,
			"target":34962
		},
		{
			"buffer":0,
			"byteLength":50676,
			"byteOffset":432996,
			"target":34963
		},
		{
			"buffer":0,
			"byteLength":7680,
			"byteOffset":483672,
			"target":34962
		},
		{
			"buffer":0,
			"byteLength":7680,
			"byteOffset":491352,
			"target":34962
		},
		{
			"buffer":0,
			"byteLength":5120,
			"byteOffset":499032,
			"target":34962
		},
		{
			"buffer":0,
			"byteLength":7656,
			"byteOffset":504152,
			"target":34963
		},
		{
			"buffer":0,
			"byteLength":312,
			"byteOffset":511808,
			"target":34962
		},
		{
			"buffer":0,
			"byteLength":312,
			"byteOffset":512120,
			"target":34962
		},
		{
			"buffer":0,
			"byteLength":208,
			"byteOffset":512432,
			"target":34962
		},
		{
			"buffer":0,
			"byteLength":144,
			"byteOffset":512640,
			"target":34963
		},
		{
			"buffer":0,
			"byteLength":4608,
			"byteOffset":512784,
			"target":34962
		},
		{
			"buffer":0,
			"byteLength":4608,
			"byteOffset":517392,
			"target":34962
		},
		{
			"buffer":0,
			"byteLength":3072,
			"byteOffset":522000,
			"target":34962
		},
		{
			"buffer":0,
			"byteLength":4584,
			"byteOffset":525072,
			"target":34963
		}
	],
	"buffers":[
		{
			"byteLength":529656,
			"uri":"bottle3.bin"
		}
	]
}
