{
	"asset":{
		"generator":"Khronos glTF Blender I/O v4.1.63",
		"version":"2.0"
	},
	"extensionsUsed":[
		"KHR_materials_specular",
		"KHR_materials_ior"
	],
	"scene":0,
	"scenes":[
		{
			"name":"Scene",
			"nodes":[
				3,
				7,
				8
			]
		}
	],
	"nodes":[
		{
			"mesh":0,
			"name":"Cylinder_Common Pill Bottle_0_001",
			"rotation":[
				0.7071068286895752,
				0,
				0,
				0.7071068286895752
			],
			"scale":[
				0.05000000074505806,
				0.04999999701976776,
				0.04999999701976776
			],
			"translation":[
				-265,
				-24,
				-24
			]
		},
		{
			"children":[
				0
			],
			"name":"Cylinder.002",
			"rotation":[
				0,
				-0.7071068286895752,
				-0.7071068286895752,
				1.3767879636361613e-07
			],
			"translation":[
				-264.980224609375,
				23.77523422241211,
				0
			]
		},
		{
			"children":[
				1
			],
			"name":"RootNode.002"
		},
		{
			"children":[
				2
			],
			"name":"18f23e87d166406ca447304a14e6cc83.fbx.002",
			"rotation":[
				0.70710688829422,
				0,
				0,
				0.7071066498756409
			]
		},
		{
			"mesh":1,
			"name":"Cylinder_Common Pill Bottle_0_002",
			"rotation":[
				0.7071068286895752,
				0,
				0,
				0.7071068286895752
			],
			"scale":[
				0.05000000074505806,
				0.04999999701976776,
				0.04999999701976776
			],
			"translation":[
				-265,
				-24,
				-24
			]
		},
		{
			"children":[
				4
			],
			"name":"Cylinder.001",
			"rotation":[
				0,
				-0.7071068286895752,
				-0.7071068286895752,
				1.3767879636361613e-07
			],
			"translation":[
				-264.980224609375,
				23.77523422241211,
				0
			]
		},
		{
			"children":[
				5
			],
			"name":"RootNode.001"
		},
		{
			"children":[
				6
			],
			"name":"18f23e87d166406ca447304a14e6cc83.fbx.001",
			"rotation":[
				0.70710688829422,
				0,
				0,
				0.7071066498756409
			]
		},
		{
			"mesh":2,
			"name":"Background",
			"scale":[
				100,
				100,
				100
			]
		}
	],
	"materials":[
		{
			"doubleSided":true,
			"name":"Common_Pill_Bottle_002",
			"normalTexture":{
				"index":0
			},
			"occlusionTexture":{
				"index":1
			},
			"pbrMetallicRoughness":{
				"baseColorTexture":{
					"index":2
				},
				"metallicFactor":0,
				"metallicRoughnessTexture":{
					"index":1
				}
			}
		},
		{
			"doubleSided":true,
			"name":"Common_Pill_Bottle_001",
			"normalTexture":{
				"index":3
			},
			"occlusionTexture":{
				"index":4
			},
			"pbrMetallicRoughness":{
				"baseColorTexture":{
					"index":5
				},
				"metallicFactor":0,
				"metallicRoughnessTexture":{
					"index":4
				}
			}
		},
		{
			"doubleSided":true,
			"extensions":{
				"KHR_materials_specular":{
					"specularFactor":0.4000000059604645
				},
				"KHR_materials_ior":{
					"ior":1.4500000476837158
				}
			},
			"name":"Floor",
			"pbrMetallicRoughness":{
				"baseColorFactor":[
					0.863157331943512,
					0.6653875112533569,
					0.5028864741325378,
					1
				],
				"metallicFactor":0,
				"roughnessFactor":0.8999999761581421
			}
		}
	],
	"meshes":[
		{
			"name":"Cylinder_Common Pill Bottle_0.002",
			"primitives":[
				{
					"attributes":{
						"POSITION":0,
						"NORMAL":1,
						"TEXCOORD_0":2
					},
					"indices":3,
					"material":0
				}
			]
		},
		{
			"name":"Cylinder_Common Pill Bottle_0.004",
			"primitives":[
				{
					"attributes":{
						"POSITION":4,
						"NORMAL":5,
						"TEXCOORD_0":6
					},
					"indices":7,
					"material":1
				}
			]
		},
		{
			"name":"Plane",
			"primitives":[
				{
					"attributes":{
						"POSITION":8,
						"NORMAL":9,
						"TEXCOORD_0":10
					},
					"indices":11,
					"material":2
				}
			]
		}
	],
	"textures":[
		{
			"sampler":0,
			"source":0
		},
		{
			"sampler":0,
			"source":1
		},
		{
			"sampler":0,
			"source":2
		},
		{
			"sampler":0,
			"source":0
		},
		{
			"sampler":0,
			"source":1
		},
		{
			"sampler":0,
			"source":2
		}
	],
	"images":[
		{
			"mimeType":"image/png",
			"name":"Common_Pill_Bottle_normal",
			"uri":"Common_Pill_Bottle_normal.png"
		},
		{
			"mimeType":"image/png",
			"name":"Common_Pill_Bottle_metallicRoughness",
			"uri":"Common_Pill_Bottle_metallicRoughness.png"
		},
		{
			"mimeType":"image/png",
			"name":"Common_Pill_Bottle_baseColor",
			"uri":"Common_Pill_Bottle_baseColor.png"
		}
	],
	"accessors":[
		{
			"bufferView":0,
			"componentType":5126,
			"count":148,
			"max":[
				72.16156005859375,
				74.26675415039062,
				128.6045684814453
			],
			"min":[
				-76.3719482421875,
				-74.2667236328125,
				83.41770935058594
			],
			"type":"VEC3"
		},
		{
			"bufferView":1,
			"componentType":5126,
			"count":148,
			"type":"VEC3"
		},
		{
			"bufferView":2,
			"componentType":5126,
			"count":148,
			"type":"VEC2"
		},
		{
			"bufferView":3,
			"componentType":5123,
			"count":504,
			"type":"SCALAR"
		},
		{
			"bufferView":4,
			"componentType":5126,
			"count":347,
			"max":[
				94.54541015625,
				96.65065002441406,
				83.41770935058594
			],
			"min":[
				-98.75582885742188,
				-96.65061950683594,
				-187.4141082763672
			],
			"type":"VEC3"
		},
		{
			"bufferView":5,
			"componentType":5126,
			"count":347,
			"type":"VEC3"
		},
		{
			"bufferView":6,
			"componentType":5126,
			"count":347,
			"type":"VEC2"
		},
		{
			"bufferView":7,
			"componentType":5123,
			"count":1800,
			"type":"SCALAR"
		},
		{
			"bufferView":8,
			"componentType":5126,
			"count":24,
			"max":[
				1,
				1.5028787851333618,
				1
			],
			"min":[
				-1,
				0,
				-1
			],
			"type":"VEC3"
		},
		{
			"bufferView":9,
			"componentType":5126,
			"count":24,
			"type":"VEC3"
		},
		{
			"bufferView":10,
			"componentType":5126,
			"count":24,
			"type":"VEC2"
		},
		{
			"bufferView":11,
			"componentType":5123,
			"count":66,
			"type":"SCALAR"
		}
	],
	"bufferViews":[
		{
			"buffer":0,
			"byteLength":1776,
			"byteOffset":0,
			"target":34962
		},
		{
			"buffer":0,
			"byteLength":1776,
			"byteOffset":1776,
			"target":34962
		},
		{
			"buffer":0,
			"byteLength":1184,
			"byteOffset":3552,
			"target":34962
		},
		{
			"buffer":0,
			"byteLength":1008,
			"byteOffset":4736,
			"target":34963
		},
		{
			"buffer":0,
			"byteLength":4164,
			"byteOffset":5744,
			"target":34962
		},
		{
			"buffer":0,
			"byteLength":4164,
			"byteOffset":9908,
			"target":34962
		},
		{
			"buffer":0,
			"byteLength":2776,
			"byteOffset":14072,
			"target":34962
		},
		{
			"buffer":0,
			"byteLength":3600,
			"byteOffset":16848,
			"target":34963
		},
		{
			"buffer":0,
			"byteLength":288,
			"byteOffset":20448,
			"target":34962
		},
		{
			"buffer":0,
			"byteLength":288,
			"byteOffset":20736,
			"target":34962
		},
		{
			"buffer":0,
			"byteLength":192,
			"byteOffset":21024,
			"target":34962
		},
		{
			"buffer":0,
			"byteLength":132,
			"byteOffset":21216,
			"target":34963
		}
	],
	"samplers":[
		{
			"magFilter":9729,
			"minFilter":9987
		}
	],
	"buffers":[
		{
			"byteLength":21348,
			"uri":"bottle2.bin"
		}
	]
}
